<?xml version="1.0" encoding="UTF-8"?>
<!DOCTYPE svg PUBLIC "-//W3C//DTD SVG 1.1//EN" "http://www.w3.org/Graphics/SVG/1.1/DTD/svg11.dtd">
<!-- Creator: CorelDRAW X7 -->
<svg xmlns="http://www.w3.org/2000/svg" xml:space="preserve" width="42px" height="60px" version="1.1" style="shape-rendering:geometricPrecision; text-rendering:geometricPrecision; image-rendering:optimizeQuality; fill-rule:evenodd; clip-rule:evenodd"
viewBox="0 0 42 59"
 xmlns:xlink="http://www.w3.org/1999/xlink">
 <defs>
  <style type="text/css">
   <![CDATA[
    .str0 {stroke:#00A2E9;stroke-width:0.00226}
    .str2 {stroke:#FEFEFE;stroke-width:0.5}
    .str1 {stroke:#FEFEFE;stroke-width:0.02}
    .fil2 {fill:none}
    .fil1 {fill:#FEFEFE}
    .fil0 {fill:#187BD6}
   ]]>
  </style>
 </defs>
 <g id="Layer_x0020_1">
  <metadata id="CorelCorpID_0Corel-Layer"/>
  <g id="_1907785226032">
   <path class="fil0 str0" d="M14 51l-3 -8c-5,-3 -7,-8 -7,-14 0,-9 7,-16 17,-16 10,0 18,7 18,16 0,9 -8,17 -18,17 -1,0 -2,0 -2,0l-5 5 0 0z"/>
   <path class="fil1 str1" d="M27 25l0 4c0,0 0,0 0,0l-3 0c0,0 -1,0 -1,0l0 -4c0,0 0,0 0,0l-1 0c0,0 0,0 0,0 0,0 0,0 0,0l1 -2 2 -2c0,0 0,0 0,0 0,0 0,0 0,0l2 2 1 2c0,0 0,0 0,0 0,0 0,0 0,0l-1 0c0,0 0,0 0,0z"/>
   <path class="fil1 str1" d="M16 25l0 -4c0,0 0,0 0,0l3 0c0,0 0,0 0,0l0 4c0,0 0,0 1,0l1 0c0,0 0,0 0,0 0,0 0,0 0,0l-2 2 -1 2c0,0 0,0 0,0 0,0 0,0 0,0l-2 -2 -1 -2c0,0 0,0 0,0 0,0 0,0 0,0l1 0c0,0 0,0 0,0z"/>
   <path class="fil1 str1" d="M27 25l0 4c0,0 0,0 0,0l-3 0c0,0 -1,0 -1,0l0 -4c0,0 0,0 0,0l-1 0c0,0 0,0 0,0 0,0 0,0 0,0l1 -2 2 -2c0,0 0,0 0,0 0,0 0,0 0,0l2 2 1 2c0,0 0,0 0,0 0,0 0,0 0,0l-1 0c0,0 0,0 0,0z"/>
   <path class="fil1 str1" d="M16 25l0 -4c0,0 0,0 0,0l3 0c0,0 0,0 0,0l0 4c0,0 0,0 1,0l1 0c0,0 0,0 0,0 0,0 0,0 0,0l-2 2 -1 2c0,0 0,0 0,0 0,0 0,0 0,0l-2 -2 -1 -2c0,0 0,0 0,0 0,0 0,0 0,0l1 0c0,0 0,0 0,0z"/>
   <path class="fil2 str2" d="M14 32c0,-1 1,-1 2,0 1,1 1,1 2,0"/>
   <path class="fil2 str2" d="M30 32c-1,0 -1,0 -1,0 -1,-1 -1,-1 -2,0"/>
   <path class="fil2 str2" d="M23 32c-1,1 -2,1 -3,0 0,-1 -1,-1 -2,0"/>
   <path class="fil2 str2" d="M23 32c0,-1 1,-1 2,0 0,1 1,1 2,0"/>
   <path class="fil2 str2" d="M14 35c0,-1 1,-1 2,-1 1,1 1,2 2,0"/>
   <path class="fil2 str2" d="M30 35c-1,0 -1,0 -1,-1 -1,0 -1,-1 -2,0"/>
   <path class="fil2 str2" d="M23 34c-1,2 -2,1 -3,0 0,0 -1,-1 -2,0"/>
   <path class="fil2 str2" d="M23 34c0,-1 1,0 2,0 0,1 1,2 2,0"/>
   <path class="fil2 str2" d="M14 38c0,-2 1,-2 2,-1 1,1 2,1 2,0"/>
   <path class="fil2 str2" d="M30 38c-1,-1 -1,-1 -1,-1 -1,-1 -1,-1 -2,0"/>
   <path class="fil2 str2" d="M23 37c-1,1 -2,1 -3,0 0,-1 -1,-1 -2,0"/>
   <path class="fil2 str2" d="M23 37c0,-1 1,-1 2,0 0,1 1,1 2,0"/>
  </g>
 </g>
</svg>
