<?xml version="1.0" encoding="UTF-8"?>
<!DOCTYPE svg PUBLIC "-//W3C//DTD SVG 1.1//EN" "http://www.w3.org/Graphics/SVG/1.1/DTD/svg11.dtd">
<!-- Creator: CorelDRAW X7 -->
<svg xmlns="http://www.w3.org/2000/svg" xml:space="preserve" width="45px" height="64px" version="1.1" style="shape-rendering:geometricPrecision; text-rendering:geometricPrecision; image-rendering:optimizeQuality; fill-rule:evenodd; clip-rule:evenodd"
viewBox="0 0 45 64"
 xmlns:xlink="http://www.w3.org/1999/xlink">
 <defs>
  <style type="text/css">
   <![CDATA[
    .str1 {stroke:#FEFEFE;stroke-width:0.0428571}
    .str0 {stroke:#059550;stroke-width:0.0428571}
    .fil1 {fill:#FEFEFE}
    .fil0 {fill:#059550}
   ]]>
  </style>
 </defs>
 <g id="Layer_x0020_1">
  <metadata id="CorelCorpID_0Corel-Layer"/>
  <path class="fil0 str0" d="M15 51l-3 -9c-5,-3 -8,-8 -8,-14 0,-9 8,-16 18,-16 10,0 18,7 18,16 0,9 -8,17 -18,17 -1,0 -2,0 -2,0l-5 6z"/>
  <g id="_2337271031584">
   <path class="fil1 str1" d="M14 23c0,0 0,0 0,0 1,-1 2,-2 3,-2 0,-1 1,-2 2,-2 0,-1 1,-3 3,-3 2,0 4,2 4,4 0,0 0,0 0,0 0,0 1,0 1,0 3,0 5,2 5,5 0,0 0,0 0,0 1,1 2,1 2,3 0,1 -1,2 -2,2 0,0 -1,0 -1,0l-17 0 0 0c-2,0 -4,-2 -4,-4 0,-2 2,-3 4,-3z"/>
   <path class="fil1 str1" d="M21 36c-3,-2 0,-4 2,-5 -1,2 1,5 -2,5z"/>
   <path class="fil1 str1" d="M14 36c-3,-2 0,-4 2,-5 -1,2 1,5 -2,5z"/>
   <path class="fil1 str1" d="M16 42c-2,-2 0,-4 2,-5 0,2 1,5 -2,5z"/>
   <path class="fil1 str1" d="M24 42c-3,-2 0,-4 2,-5 0,2 1,5 -2,5z"/>
   <path class="fil1 str1" d="M28 36c-2,-2 0,-4 2,-5 0,2 1,5 -2,5z"/>
  </g>
 </g>
</svg>
