<?xml version="1.0" encoding="UTF-8"?>
<!DOCTYPE svg PUBLIC "-//W3C//DTD SVG 1.1//EN" "http://www.w3.org/Graphics/SVG/1.1/DTD/svg11.dtd">
<!-- Creator: CorelDRAW X7 -->
<svg xmlns="http://www.w3.org/2000/svg" xml:space="preserve" width="42px" height="60px" version="1.1" style="shape-rendering:geometricPrecision; text-rendering:geometricPrecision; image-rendering:optimizeQuality; fill-rule:evenodd; clip-rule:evenodd"
viewBox="0 0 42 59"
 xmlns:xlink="http://www.w3.org/1999/xlink">
 <defs>
  <style type="text/css">
   <![CDATA[
    .str0 {stroke:#E53935;stroke-width:0.00226}
    .str1 {stroke:white;stroke-width:0.01524}
    .fil0 {fill:#E53935}
    .fil1 {fill:white}
   ]]>
  </style>
 </defs>
 <g id="Layer_x0020_1">
  <metadata id="CorelCorpID_0Corel-Layer"/>
  <g id="_1907785240176">
   <path class="fil0 str0" d="M14 48l-3 -9c-5,-3 -8,-8 -8,-13 0,-9 8,-16 18,-16 10,0 17,7 17,16 0,8 -7,16 -17,16 -1,0 -2,0 -2,0l-5 6 0 0z"/>
   <path class="fil1 str1" d="M21 17l0 0c1,0 1,0 1,1l0 1 1 -1c0,0 1,0 1,0l0 0c1,0 1,1 1,1l-3 3 0 2 2 -1 1 -3c0,-1 1,-1 1,-1l1 0c0,1 1,1 0,2l0 0 1 0c0,0 1,0 1,0l0 1c1,0 1,1 0,1l0 0 0 0c1,0 1,1 1,1l0 1c0,0 -1,1 -1,1l-3 -1 -2 1 1 1 4 -1c0,0 1,1 1,1l0 1c0,0 0,1 -1,1l-1 0 1 0c0,1 1,1 0,2l0 0c0,0 -1,1 -1,0l-1 0 0 0c1,1 0,1 0,2l-1 0c0,0 -1,0 -1,-1l-1 -2 -2 -2 0 2 3 3c0,0 0,1 -1,1l0 0c0,1 -1,1 -1,0l-1 0 0 0c0,1 0,1 -1,1l0 0c-1,0 -1,0 -1,-1l0 0 0 0c-1,1 -1,1 -2,0l0 0c0,0 0,-1 0,-1l2 -2 0 -3 -2 1 -1 3c0,1 -1,1 -1,1l0 0c-1,-1 -1,-1 -1,-2l0 0 0 0c-1,1 -1,0 -2,0l0 0c0,-1 0,-1 0,-2l1 0 -1 0c0,0 0,-1 0,-1l0 -1c0,0 0,-1 1,-1l3 1 2 -1 -2 -1 -3 1c-1,0 -1,-1 -1,-1l0 -1c0,0 0,-1 0,-1l1 0 -1 0c0,0 0,-1 0,-1l0 -1c0,0 1,0 2,0l0 0 0 0c0,-1 0,-1 1,-2l0 0c0,0 1,0 1,1l1 3 2 1 0 -3 -2 -2c0,0 0,-1 0,-1l0 0c1,0 1,0 2,0l0 0 0 0c0,-1 0,-1 1,-1z"/>
  </g>
 </g>
</svg>
